<svg xmlns="http://www.w3.org/2000/svg" width="170" height="121" viewBox="0 0 812.1 576.1"><path fill="#FFF" d="M0 0h812.1v576.1H0z"/><path fill="#0068A9" d="M120.1 387.6h572v80h-572z"/><path fill="#FFF" d="M244.8 409.1l-13.3 35h4.7l3.3-9.1h13.4l3.5 9.1h4.9l-13.5-35h-3zm-3.7 21.7l3.8-10.6c.3-.8.6-1.6.8-2.3.2-.7.4-1.3.6-2h.1c.1.6.3 1.2.5 1.9s.5 1.5.8 2.4l3.6 10.5h-10.2zm38.6-12.2c.5.2.9.4 1.3.6l-1.8 4.3c-.8-.4-1.6-.6-2.5-.6-.8 0-1.7.2-2.5.7-.9.4-1.8 1.1-2.8 2.1V444h-4.6v-25h3.8l.6 2.8c.8-.7 1.5-1.3 2.1-1.8.6-.4 1.2-.8 1.8-1 .5-.2 1.1-.4 1.5-.5.5-.1.9-.1 1.4-.1.6 0 1.2.1 1.7.2zm21.8.4h4.5l-10.3 25.1h-3.5l-9.7-25.1h4.7l6.7 19h.1l7.5-19zm26.8 22.7c0-.6-.1-1.5-.1-2.5v-12.1c0-1.6-.2-3-.7-4.1-.5-1.1-1.1-2-1.9-2.7-.8-.7-1.7-1.2-2.8-1.5-1.1-.3-2.3-.5-3.6-.5-.8 0-1.6 0-2.3.1-.8.1-1.5.2-2.2.5-.7.2-1.5.5-2.2.9-.7.4-1.5.8-2.3 1.4l1.7 3.2c.4-.3.8-.5 1.2-.8.4-.3.9-.5 1.4-.7.5-.2 1.1-.4 1.8-.5.6-.1 1.3-.2 2.1-.2.7 0 1.4.1 2 .3.6.2 1.2.5 1.6.9.5.4.8.9 1.1 1.6.3.7.4 1.5.4 2.4v.9l-4.8.2c-3.3.1-5.8.9-7.5 2.3-1.7 1.4-2.6 3.4-2.6 5.9 0 1.2.2 2.3.6 3.2.4 1 1 1.8 1.7 2.4.7.7 1.5 1.2 2.5 1.5.9.4 1.9.5 3 .5.9 0 1.7-.1 2.4-.2.7-.2 1.4-.4 2-.6.6-.3 1.2-.6 1.7-.9.5-.4 1-.7 1.3-1.1l1 2.4h3.9c-.1-.2-.2-.5-.2-.9s-.1-.7-.2-1.3zm-4.7-3.5c-.3.3-.6.5-.9.8-.4.3-.8.6-1.3.8-.5.2-1 .4-1.6.6-.6.2-1.2.2-2 .2-.7 0-1.4-.1-2-.3-.6-.2-1-.5-1.4-.9-.4-.4-.7-.8-.9-1.3-.2-.5-.3-1.1-.3-1.7 0-1.3.5-2.2 1.4-2.9.9-.7 2.4-1.1 4.4-1.2l4.5-.2v6.1zm25.7.6l1.4 3.2c-1.1.8-2.2 1.4-3.5 1.8-1.3.5-2.5.7-3.6.7-1 0-1.8-.1-2.5-.4-.7-.3-1.3-.6-1.7-1.1-.5-.5-.8-1.1-1-1.7-.2-.7-.3-1.4-.3-2.2v-16.2H334V419h4.1v-5.6l4.7-1.5v7.1h7.6l-1.5 3.8h-6.1v14.7c0 1 .2 1.8.6 2.3.4.5 1 .7 1.8.7.4 0 .8-.1 1.2-.2.4-.1.8-.2 1.2-.4.4-.2.7-.3 1-.5.2-.3.5-.4.7-.6zm25.6-17.1c-1-1.1-2.2-1.9-3.6-2.5-1.4-.6-2.9-.9-4.7-.9-1.7 0-3.2.3-4.5.9-1.4.6-2.6 1.4-3.6 2.5-1.1 1.2-2 2.6-2.6 4.3-.6 1.7-.9 3.5-.9 5.5s.3 3.9.9 5.6c.6 1.7 1.5 3.1 2.6 4.3 2.1 2 4.7 3 8 3 1.7 0 3.2-.3 4.6-.8 1.4-.6 2.6-1.4 3.6-2.4 1.1-1.2 2-2.6 2.6-4.3.6-1.7.9-3.5.9-5.5s-.3-3.9-.9-5.5c-.4-1.6-1.3-3-2.4-4.2zm-1.8 13.4c-.3 1.1-.8 2.1-1.3 2.9-.6.8-1.3 1.4-2.1 1.9-.8.4-1.8.7-2.9.7-1.1 0-2.1-.2-2.9-.7-.9-.4-1.6-1.1-2.2-1.9-.6-.8-1.1-1.8-1.4-2.9-.3-1.1-.5-2.4-.5-3.8s.1-2.6.4-3.7c.3-1.1.7-2.1 1.3-2.9.6-.8 1.3-1.4 2.1-1.9.9-.4 1.8-.7 2.9-.7 1.1 0 2.1.2 3 .7.9.4 1.6 1.1 2.2 1.9.6.8 1 1.8 1.4 2.9.3 1.1.5 2.4.5 3.8s-.2 2.6-.5 3.7zm45.9-3.5c.4 1 .7 2.2.7 3.5 0 1.4-.3 2.7-.9 3.8-.6 1.2-1.4 2.1-2.4 2.9-1 .8-2.2 1.4-3.6 1.9-1.4.4-2.9.7-4.5.7-1.2 0-2.2-.1-3.2-.3-1-.2-1.9-.4-2.7-.7-.8-.3-1.5-.6-2.2-.9-.7-.3-1.2-.7-1.8-1l2.1-3.6c.4.3.8.6 1.3.9.5.3 1.1.6 1.8.8.6.2 1.4.4 2.1.6.8.2 1.6.2 2.4.2.7 0 1.5-.1 2.3-.3.8-.2 1.5-.5 2.1-.9.6-.4 1.1-.9 1.5-1.5.4-.6.6-1.4.6-2.2 0-.9-.2-1.8-.6-2.5-.4-.7-1-1.4-1.7-2-.7-.6-1.5-1.1-2.4-1.7-.9-.5-1.8-1-2.7-1.6-.9-.5-1.8-1.1-2.7-1.7-.9-.6-1.7-1.3-2.4-2.1s-1.3-1.7-1.8-2.7c-.4-1-.7-2.2-.7-3.6 0-1.2.2-2.4.7-3.5.5-1.1 1.1-2 2-2.8.9-.8 2-1.4 3.3-1.9 1.3-.5 2.8-.7 4.4-.7 1.8 0 3.4.2 4.7.6 1.3.4 2.4.8 3.2 1.2l-.1 4.6c-1.1-.7-2.2-1.2-3.6-1.6-1.3-.4-2.7-.7-4.1-.7-.8 0-1.6.1-2.3.3-.7.2-1.3.4-1.9.8-.5.4-1 .8-1.3 1.4-.3.5-.5 1.2-.5 2 0 .9.2 1.7.7 2.4.4.7 1 1.4 1.7 1.9.7.6 1.5 1.2 2.4 1.7.9.5 1.8 1.1 2.8 1.6 1 .5 1.9 1.1 2.8 1.8.9.6 1.7 1.3 2.4 2.1 1.1.9 1.7 1.8 2.1 2.8zm23.7-12.6h4.6l-9.5 26.9c-.8 2.3-1.6 4.1-2.5 5.5-.9 1.4-1.8 2.5-2.7 3.2-.9.8-1.9 1.3-2.9 1.5-1 .2-2 .4-3.1.4s-2-.1-2.8-.3c-.8-.2-1.5-.4-2.2-.7l1.2-3.6c.5.3 1.1.5 1.7.6.6.1 1.3.2 2 .2s1.4-.2 2.1-.5c.7-.3 1.4-.8 2-1.5.6-.7 1.2-1.6 1.8-2.7.6-1.1 1.1-2.4 1.5-4l-11.3-25h4.9l8.5 19.5h.2l6.5-19.5zm24.9 15.3c.3.8.5 1.7.5 2.7 0 1.3-.3 2.5-.8 3.4-.5.9-1.2 1.7-2.1 2.3-.9.6-1.9 1-3.1 1.3-1.2.3-2.4.4-3.8.4-.9 0-1.8-.1-2.5-.2-.8-.1-1.5-.3-2.1-.5-.6-.2-1.2-.4-1.8-.7-.5-.2-1-.5-1.4-.8l1.6-3.6c.4.2.8.5 1.2.7.5.2.9.4 1.5.6s1.1.3 1.7.5c.6.1 1.2.2 1.9.2s1.4-.1 2-.2c.6-.2 1.1-.4 1.6-.7.4-.3.8-.6 1-1.1.2-.4.4-.9.4-1.4 0-.7-.2-1.3-.5-1.8s-.7-.9-1.3-1.3c-.5-.4-1.1-.7-1.8-1l-2.1-.9c-.7-.3-1.4-.7-2.1-1.1-.7-.4-1.3-.9-1.8-1.4-.5-.6-1-1.2-1.3-2-.3-.8-.5-1.7-.5-2.8 0-.9.2-1.8.5-2.7.4-.8.9-1.6 1.6-2.2.7-.6 1.6-1.1 2.7-1.5 1.1-.4 2.3-.5 3.8-.5 1.4 0 2.6.1 3.7.4 1.1.2 2 .6 2.9.9v4c-.5-.2-1-.4-1.4-.6-.5-.2-1-.3-1.5-.5-.5-.1-1.1-.3-1.6-.3-.6-.1-1.2-.1-1.8-.1-.6 0-1.2.1-1.7.2s-1 .3-1.4.5c-.4.2-.7.5-.9.9-.2.4-.3.8-.3 1.3 0 .6.2 1.2.5 1.6.3.4.8.8 1.3 1.2.5.4 1.1.7 1.8 1 .7.3 1.4.6 2.1 1 .7.3 1.4.7 2.1 1.1.7.4 1.3.9 1.8 1.5.7.8 1.1 1.4 1.4 2.2zm20.3 4.5l1.4 3.2c-1.1.8-2.2 1.4-3.5 1.8-1.3.5-2.5.7-3.6.7-1 0-1.8-.1-2.5-.4-.7-.3-1.3-.6-1.7-1.1-.5-.5-.8-1.1-1-1.7-.2-.7-.3-1.4-.3-2.2v-16.2h-4.1V419h4.1v-5.6l4.7-1.5v7.1h7.6l-1.5 3.8h-6.1v14.7c0 1 .2 1.8.6 2.3.4.5 1 .7 1.8.7.4 0 .8-.1 1.2-.2.4-.1.8-.2 1.2-.4s.7-.3 1-.5c.2-.3.5-.4.7-.6zm23.8-16.9c-.9-1.1-2-2-3.2-2.6s-2.7-.9-4.3-.9c-1.6 0-3 .3-4.3 1-1.3.7-2.4 1.6-3.3 2.7-.9 1.1-1.6 2.5-2.1 4-.5 1.6-.7 3.2-.7 5 0 1.8.2 3.4.7 5 .5 1.6 1.2 3 2.2 4.2 1 1.2 2.2 2.2 3.7 2.9 1.5.7 3.2 1.1 5.3 1.1 1.4 0 2.9-.2 4.3-.6 1.5-.4 2.7-1 3.9-1.9l-1.3-3.2c-.9.5-1.8.9-2.9 1.3-1 .4-2.1.6-3.2.6-1.2 0-2.3-.2-3.3-.6-1-.4-1.8-1-2.4-1.8-.7-.7-1.2-1.6-1.5-2.6-.4-1-.5-2-.5-3.2h15.9v-1.2c0-1.9-.2-3.7-.7-5.3-.8-1.4-1.5-2.8-2.3-3.9zm-13.3 6.9c0-.9.1-1.7.4-2.5.3-.8.6-1.5 1.1-2.1.5-.6 1.1-1.1 1.8-1.4.7-.4 1.5-.5 2.3-.5.9 0 1.7.2 2.4.6.7.4 1.2.9 1.7 1.5s.8 1.3 1 2.1c.2.8.3 1.6.3 2.4h-11zm58.3-6.2c.4 1 .6 2.3.6 3.9V444h-4.7v-16.1c0-.8-.1-1.5-.2-2.2-.1-.7-.3-1.2-.6-1.7s-.7-.9-1.2-1.2c-.5-.3-1.1-.4-2-.4-.8 0-1.5.1-2.1.3-.7.2-1.3.5-1.9.8-.6.3-1.2.7-1.7 1.1l-1.5 1.2c0 .2.1.4.1.6V444h-4.7v-16c0-.8-.1-1.5-.2-2.2-.1-.7-.3-1.3-.6-1.8s-.7-.9-1.2-1.2c-.5-.3-1.2-.4-2-.4s-1.5.1-2.1.3c-.7.2-1.3.5-1.9.8-.6.3-1.2.7-1.7 1.1l-1.5 1.2v18h-4.7v-25h3.9l.6 2.9c1.6-1.2 3.1-2.1 4.5-2.7s2.9-.9 4.2-.9c1.5 0 2.8.4 3.9 1.1 1.1.7 1.9 1.7 2.3 2.9.7-.6 1.4-1.2 2.2-1.7.8-.5 1.5-.9 2.3-1.3.8-.3 1.5-.6 2.3-.8.8-.2 1.5-.3 2.2-.3 1 0 2 .1 2.9.4.9.3 1.7.7 2.5 1.3 1 1 1.6 1.9 2 2.9zm23.9 14.4c0 1.3-.3 2.5-.8 3.4-.5.9-1.2 1.7-2.1 2.3s-1.9 1-3.1 1.3c-1.2.3-2.4.4-3.8.4-.9 0-1.8-.1-2.5-.2-.8-.1-1.5-.3-2.1-.5-.6-.2-1.2-.4-1.8-.7-.5-.2-1-.5-1.4-.8l1.6-3.6c.4.2.8.5 1.2.7.5.2.9.4 1.5.6s1.1.3 1.7.5c.6.1 1.2.2 1.9.2s1.4-.1 2-.2c.6-.2 1.1-.4 1.6-.7.4-.3.8-.6 1-1.1.2-.4.4-.9.4-1.4 0-.7-.2-1.3-.5-1.8s-.7-.9-1.3-1.3c-.5-.4-1.1-.7-1.8-1l-2.1-.9c-.7-.3-1.4-.7-2.1-1.1s-1.3-.9-1.8-1.4c-.5-.6-1-1.2-1.3-2-.3-.8-.5-1.7-.5-2.8 0-.9.2-1.8.5-2.7.4-.8.9-1.6 1.6-2.2.7-.6 1.6-1.1 2.7-1.5 1.1-.4 2.3-.5 3.8-.5 1.4 0 2.6.1 3.7.4 1.1.2 2 .6 2.9.9v4c-.5-.2-1-.4-1.4-.6-.5-.2-1-.3-1.5-.5s-1.1-.3-1.6-.3c-.6-.1-1.2-.1-1.8-.1-.6 0-1.2.1-1.7.2s-1 .3-1.4.5c-.4.2-.7.5-.9.9-.2.4-.3.8-.3 1.3 0 .6.2 1.2.5 1.6.3.4.8.8 1.3 1.2.5.4 1.1.7 1.8 1 .7.3 1.4.6 2.1 1 .7.3 1.4.7 2.1 1.1.7.4 1.3.9 1.8 1.5s1 1.2 1.3 2c.4.9.6 1.8.6 2.9z"/><path fill="#1D1D1B" d="M621.3 296.3h8.8v60h-6.4l-31.2-42.9v42.9h-8.8v-60h7.4l30.2 41.5v-41.5zm-69.9-.5l23.5 60.5h-10.1l-5.2-14.3h-23.3l-5.2 14.3h-9.7l23.8-60.5h6.2zm5.3 38.5l-8.8-24.2-8.8 24.2h17.6zm-57.8-38L481.5 334l-18-37.7h-8.1l-6.3 60h9.5l3.8-42.2 17 35.6h3.7l16.8-36.5 4 43.2h9.3l-6.3-60h-8zm-87.6 13.9c0-5 4.1-7.8 10.7-7.8 5.5 0 10.9 2.7 13.1 4.1l3.2-7.2c-1.8-1.2-8.5-4.7-16.5-4.7-12.2 0-20 6.4-20 16.3 0 21.1 29.8 13.1 29.8 28.4 0 6.2-5.3 9.2-13.1 9.2h-11.2l-3.6 7.9h15c14.3 0 22.4-7.5 22.4-17.7.2-22.6-29.8-15.6-29.8-28.5zm-34.9-13.9h-9.2v60h29.4l3.6-7.9h-23.8v-52.1zm-46.2 32.4h21.2v-7.8h-21.2V304h24.6v-7.8h-33.7v60h34.6v-7.8h-25.5v-19.7zm-62.3-24.6h16.8v52.2h9.2v-52.2h16.8v-7.9h-42.8v7.9zm-8.5 10c0-9.3-5.5-17.8-18.9-17.8h-18.8v60h9v-52.9h7.6c7.4 0 11.7 4.6 11.7 10.5 0 9.1-6.5 12.3-15.3 12.3h-1.2l19.4 30.1h11.2l-17-25.5c6.8-2.3 12.3-7.8 12.3-16.7zm-76.7 14.6H204v-7.8h-21.2V304h24.6v-7.8h-33.7v60h34.6v-7.8h-25.5l-.1-19.7zm-20.8 9.9c0 9.4-6.5 18-22.6 18h-19.2V296h19.4c14.1 0 19.6 7 19.6 15 0 6.2-4 10.3-7.9 12.4 4.8 1.8 10.7 5.8 10.7 15.2zm-9.3.6c0-8.2-7-11.5-15.9-11.5h-2.8l3.2-7.1c4.7 0 12.8-.8 12.8-9.3 0-4-2.6-8-11.3-8H129v46h10.1c7.9-.1 13.5-3.7 13.5-10.1zm530.6-42.9v41.5L653 296.3h-7.4v60h8.8v-42.9l31.2 42.9h6.4v-60h-8.8z"/><path fill="#0068A9" d="M558.7 141.9h25.4v22.4h-25.4v49.1c0 10.2 3.8 14.8 13.6 14.8h8.5v22.3h-19.5c-21.2 0-30.1-12.2-30.1-28.8v-57.4h-16.1v-22.4h16.1v-25l27.5-8.3v33.3zm-60.8 79.9c0 15.6.5 23.6 2.1 28.7h-25.5l-2.3-9.6c-7.1 6.4-17 11.9-31.4 11.9-20 0-35.6-14.2-35.6-35.5 0-22.5 17.7-35.3 45.4-36.2l19.6-.7V178c0-13.1-9.5-16.3-21-16.3-9.8 0-30.6 1-30.6 1V142s19.4-1 36.1-1c26.8 0 43.1 10.2 43.1 38.7v42.1zm-27.7-22.4l-15.9.5c-14.9.4-21.6 6.2-21.6 15.3 0 9 6.2 15.8 17.7 15.8 9.6 0 16.2-3.7 19.8-6.9v-24.7zm-122.5 13l-25.3-70.5h-30.5l44.2 108.5H357l45.1-108.5h-28.3l-26.1 70.5zm-99.4-70.5h-23.5v108.5h27.9v-75.6c6.4-6 14.1-7.1 20.6-7.1 2.2 0 4.9.3 7.8 1.2v-27.1c-10.3 0-18.9 1.5-29.7 11.5l-3.1-11.4zm-47 79.9c0 15.6.5 23.6 2.1 28.7h-25.5l-2.3-9.6c-7.1 6.4-17 11.9-31.4 11.9-20 0-35.6-14.2-35.6-35.5 0-22.5 17.7-35.3 45.4-36.2l19.6-.7V178c0-13.1-9.5-16.3-21-16.3-9.8 0-30.6 1-30.6 1V142s19.4-1 36.1-1c26.8 0 43.1 10.2 43.1 38.7v42.1zm-27.7-22.4l-15.9.5c-14.9.4-21.6 6.2-21.6 15.3 0 9 6.2 15.8 17.7 15.8 9.6 0 16.2-3.7 19.8-6.9v-24.7zm530-3.4c0 32.8-21.1 57.9-54.6 57.9-34.1 0-54.2-25-54.2-57 0-37.1 24.9-58.4 54.4-58.4 30.3 0 54.4 20.6 54.4 57.5zm-28.3.2c0-20.9-9.6-36-26.6-36-17.4 0-25.9 15.8-25.9 36 0 21.1 9.9 36.4 26.6 36.4 17.2 0 25.9-16 25.9-36.4z"/></svg>